<svg width="668" height="212" viewBox="0 0 668 212" fill="none" xmlns="http://www.w3.org/2000/svg">
<path d="M225.627 156C217.81 155.809 210.755 154.427 204.463 151.853C198.266 149.184 192.88 145.609 188.304 141.128C183.823 136.552 180.344 131.261 177.865 125.255C175.482 119.249 174.29 112.814 174.29 105.95C174.29 99.086 175.482 92.651 177.865 86.645C180.344 80.639 183.823 75.3957 188.304 70.915C192.88 66.339 198.266 62.7163 204.463 60.047C210.755 57.3777 217.81 55.9953 225.627 55.9H239.784V70.915H226.056C221.003 71.0103 216.38 71.9637 212.185 73.775C207.99 75.491 204.32 77.922 201.174 81.068C198.123 84.214 195.74 87.932 194.024 92.222C192.308 96.4167 191.45 100.993 191.45 105.95C191.45 110.907 192.308 115.531 194.024 119.821C195.74 124.016 198.123 127.686 201.174 130.832C204.32 133.978 207.99 136.457 212.185 138.268C216.38 139.984 221.003 140.842 226.056 140.842H239.784V156H225.627Z" fill="#FF1818"/>
<path d="M280.592 156C275.062 156 270.105 154.713 265.72 152.139C261.334 149.47 257.855 145.942 255.281 141.557C252.802 137.076 251.563 132.167 251.563 126.828C251.563 122.633 252.516 118.677 254.423 114.959C256.425 111.146 259.189 107.952 262.717 105.378C259.189 102.804 256.472 99.7057 254.566 96.083C252.659 92.365 251.706 88.504 251.706 84.5C251.706 79.1613 252.945 74.347 255.424 70.057C257.998 65.767 261.43 62.335 265.72 59.761C270.01 57.187 274.776 55.9 280.02 55.9H320.346V71.058H281.879C279.495 71.058 277.303 71.6777 275.301 72.917C273.299 74.061 271.678 75.634 270.439 77.636C269.295 79.638 268.723 81.926 268.723 84.5C268.723 86.788 269.342 88.933 270.582 90.935C271.821 92.937 273.442 94.5577 275.444 95.797C277.446 96.941 279.686 97.513 282.165 97.513H315.341V112.671H283.023C280.163 112.671 277.636 113.338 275.444 114.673C273.251 116.008 271.535 117.771 270.296 119.964C269.152 122.061 268.579 124.397 268.579 126.971C268.579 129.45 269.152 131.785 270.296 133.978C271.535 136.075 273.203 137.791 275.301 139.126C277.493 140.365 279.972 140.985 282.737 140.985H320.346V156H280.592Z" fill="#FF1818"/>
<path d="M454.87 157.708C452.868 157.708 451.104 156.945 449.579 155.42C448.054 153.895 447.291 152.131 447.291 150.129C447.291 148.032 448.054 146.268 449.579 144.838C451.104 143.313 452.868 142.55 454.87 142.55C456.967 142.55 458.731 143.313 460.161 144.838C461.686 146.268 462.449 148.032 462.449 150.129C462.449 151.464 462.068 152.751 461.305 153.99C460.638 155.134 459.732 156.04 458.588 156.707C457.444 157.374 456.205 157.708 454.87 157.708Z" fill="#FF1818"/>
<path d="M510.452 158.852C503.779 158.852 497.63 157.374 492.005 154.419C486.381 151.464 481.9 147.126 478.563 141.406C475.227 135.686 473.558 128.774 473.558 120.671V52.603H483.568V99.078H483.854C485.475 95.8367 487.715 92.9767 490.575 90.498C493.435 87.924 496.677 85.922 500.299 84.492C503.922 83.062 507.735 82.347 511.739 82.347C518.317 82.347 524.276 83.8723 529.614 86.923C535.048 89.9737 539.386 94.3113 542.627 99.936C545.869 105.465 547.489 112.139 547.489 119.956C547.489 126.057 546.536 131.539 544.629 136.401C542.723 141.168 540.053 145.219 536.621 148.556C533.285 151.893 529.376 154.467 524.895 156.278C520.415 157.994 515.6 158.852 510.452 158.852ZM510.309 150.129C515.171 150.129 519.652 148.985 523.751 146.697C527.851 144.314 531.14 140.929 533.618 136.544C536.097 132.063 537.336 126.725 537.336 120.528C537.336 114.522 536.097 109.326 533.618 104.941C531.14 100.46 527.851 97.0283 523.751 94.645C519.747 92.2617 515.362 91.07 510.595 91.07C505.829 91.07 501.396 92.2617 497.296 94.645C493.197 96.933 489.908 100.27 487.429 104.655C484.951 109.04 483.711 114.379 483.711 120.671C483.711 126.963 484.903 132.302 487.286 136.687C489.765 141.072 493.006 144.409 497.01 146.697C501.11 148.985 505.543 150.129 510.309 150.129Z" fill="#FF1818"/>
<path d="M597.053 160.711C589.713 160.711 583.421 158.995 578.177 155.563C572.934 152.131 568.93 147.555 566.165 141.835C563.401 136.02 562.018 129.537 562.018 122.387C562.018 115.142 563.544 108.659 566.594 102.939C569.645 97.1237 573.983 92.5477 579.607 89.211C585.327 85.8743 592.096 84.206 599.913 84.206C607.445 84.206 613.927 85.8743 619.361 89.211C624.891 92.5477 629.133 97.0283 632.088 102.653C635.139 108.278 636.664 114.617 636.664 121.672V158.852H626.797V142.55H626.368C625.034 145.41 623.032 148.27 620.362 151.13C617.693 153.895 614.404 156.183 610.495 157.994C606.682 159.805 602.201 160.711 597.053 160.711ZM599.198 152.131C604.537 152.131 609.256 150.844 613.355 148.27C617.455 145.601 620.696 142.026 623.079 137.545C625.463 132.969 626.607 127.821 626.511 122.101C626.511 116.476 625.415 111.471 623.222 107.086C621.03 102.701 617.931 99.221 613.927 96.647C609.923 94.073 605.157 92.786 599.627 92.786C593.907 92.786 588.998 94.1207 584.898 96.79C580.799 99.364 577.653 102.939 575.46 107.515C573.268 111.996 572.171 117.096 572.171 122.816C572.171 128.155 573.22 133.064 575.317 137.545C577.415 142.026 580.465 145.601 584.469 148.27C588.569 150.844 593.478 152.131 599.198 152.131Z" fill="#FF1818"/>
<path d="M366.741 56H334L371.591 105.921L334 155.843H366.741L404.332 105.921L366.741 56ZM441.924 56H409.182L398.852 69.7704L415.206 91.4462L441.924 56ZM398.852 142.123L409.182 155.843H441.924L415.206 120.397L398.852 142.123Z" fill="#FF1818"/>
<path d="M145.719 122.032C149.125 114.067 149.909 105.251 147.961 96.8242C146.013 88.3974 141.43 80.7835 134.856 75.053C128.283 69.3224 120.05 65.7634 111.315 64.8762C102.58 63.9891 93.7815 65.8185 86.1576 70.1072L80.9496 61.1327C88.9172 56.6512 97.9396 54.3042 107.117 54.326C116.294 54.3477 125.305 56.7374 133.25 61.2567C156.823 74.6487 165.853 103.324 154.864 127.235L161.91 131.234L140.044 142.673L139.177 118.317L145.719 122.032ZM68.2813 89.9678C64.8748 97.9333 64.0907 106.749 66.0392 115.176C67.9876 123.603 72.5707 131.216 79.144 136.947C85.7173 142.678 93.9503 146.237 102.685 147.124C111.421 148.011 120.219 146.182 127.843 141.893L133.051 150.867C125.083 155.349 116.061 157.696 106.884 157.674C97.7065 157.652 88.6956 155.263 80.7501 150.743C57.1776 137.351 48.1476 108.676 59.1358 84.765L52.0851 80.7712L73.9513 69.3322L74.8176 93.6878L68.2761 89.973L68.2813 89.9678ZM114.429 120.611L99.5661 106L84.7191 120.611L77.2956 113.306L99.5713 91.3887L114.424 106L129.276 91.3887L136.699 98.6943L114.424 120.611H114.429Z" fill="#FF1818"/>
</svg>
