<svg width="89" height="81" viewBox="0 0 89 81" fill="none" xmlns="http://www.w3.org/2000/svg">
<path d="M75.9726 52.749C78.7111 46.5433 79.3414 39.675 77.7751 33.1098C76.2087 26.5447 72.5245 20.6128 67.2402 16.1482C61.956 11.6836 55.3376 8.91081 48.3154 8.21966C41.2933 7.5285 34.2206 8.95374 28.0918 12.295L23.9051 5.3031C30.3102 1.81164 37.5632 -0.0168346 44.9406 0.000116799C52.318 0.0170682 59.5617 1.87885 65.9491 5.39971C84.8988 15.8332 92.158 38.1735 83.3246 56.8025L88.9884 59.918L71.4103 68.83L70.714 49.8548L75.9726 52.749ZM13.7212 27.7682C10.9828 33.9739 10.3524 40.8422 11.9187 47.4073C13.4851 53.9725 17.1694 59.9044 22.4536 64.369C27.7378 68.8336 34.3563 71.6064 41.3784 72.2975C48.4005 72.9887 55.4732 71.5634 61.602 68.2222L65.7887 75.2141C59.3836 78.7055 52.1306 80.534 44.7532 80.5171C37.3758 80.5001 30.1321 78.6383 23.7447 75.1175C4.79499 64.684 -2.46416 42.3437 6.36921 23.7147L0.701172 20.6032L18.2793 11.6912L18.9757 30.6664L13.717 27.7722L13.7212 27.7682ZM50.8188 51.6421L38.8708 40.2586L26.9354 51.6421L20.9677 45.9503L38.875 28.8751L50.8146 40.2586L62.7542 28.8751L68.7219 34.5668L50.8146 51.6421H50.8188Z" fill="#FF1818"/>
</svg>
