<?xml version="1.0"?>
<svg version="1.1" xmlns="http://www.w3.org/2000/svg" width="181px" height="37px" style=""><path fill="#417ca6" d="M18.5,19.75l-0.675-2.875s-1.325-0.5-3.2-0.5c-3.375,0-5.25,2.5-5.25,7.125c0,4.5,2.25,6.5,5.375,6.5c2.625,0,5-2,5-2l1,1.625s-2.5,2.625-6.25,2.625c-5,0-8-3-8-8.625c0-5.75,3.25-9.375,8.375-9.375c2.75,0,5.625,1.25,5.625,1.25l-0.125,4.25l-1.875,0z M29.34,21.875l5.75,0l0,2l-5.75,0l0,6.125l5.75,0l0.5-2.5l1.625,0l0,4.5l-12.625,0l0-1.5l2.125-0.5l0-13.5l-2.125-0.5l0-1.375l4.75-0.125l7.625,0l0,4.25l-1.625,0l-0.625-2.25l-5.375,0l0,5.375z M42.305,30.125l5.25-7l-4.625-6.625l-1.875-0.5l0-1.375l6.625-0.125l0,1.5l-1.625,0.5l3.25,4.75l3.25-4.75l-1.75-0.5l0-1.375l6.625-0.125l0,1.5l-2.25,0.5l-4.5,6.5l4.875,7l2.125,0.5l0,1.5l-6.75,0l0-1.5l1.5-0.375l-3.5-5.125l-3.75,5l2.125,0.5l0,1.5l-6.625,0l0-1.5z M61.27,30.5c0-1.125,0.75-1.75,1.625-1.75c1,0,1.625,0.625,1.625,1.75s-0.75,1.75-1.625,1.75c-1,0-1.625-0.625-1.625-1.75z M72.485,12.75l0,7.2c0.825-0.65,2.125-1.45,3.75-1.45c3.625,0,5.25,2.625,5.25,6.5c0,4.25-2.375,7.25-6.875,7.25c-2.75,0-4.625-0.625-4.625-0.625l0-16.875l-2-0.5l0-1.375z M72.485,22.125l0,7.875s0.65,0.25,2.5,0.25c2.9,0,3.875-2.25,3.875-5s-0.875-4.75-3.125-4.75s-3.25,1.625-3.25,1.625z M86.325,22.625l-0.125-3.125s2.75-1,4.875-1c2.9,0,4.625,1,4.625,3.875l0,7.625l2,0.5l0,1.375l-3.875,0.125l-0.525-1.75c-0.85,0.85-2.35,2-4.1,2c-2.375,0-3.75-1.375-3.75-3.75c0-2.875,2.25-3.875,5.75-3.875l2,0l0-2c0-1.5-0.875-2.25-2.375-2.25s-2.525,0.375-2.525,0.375l-0.35,1.875l-1.625,0z M93.2,26.25l-1.75,0c-2.5,0-3.45,0.625-3.45,2.125c0,1.125,0.7,1.875,1.825,1.875c1.875,0,3.375-2,3.375-2l0-2z"/><path fill="#2d7cb5" d="M102.357421875,22.630859375q0-1.271484375,0.1142578125-2.5458984375t0.4775390625-2.5107421875q0.10546875-0.369140625,0.275390625-0.7294921875t0.416015625-0.6416015625t0.5859375-0.45703125t0.80859375-0.17578125l0.123046875,0.01171875q0.50390625,0.0703125,0.744140625,0.4072265625t0.240234375,0.8408203125q0,0.134765625-0.0322265625,0.3369140625t-0.1025390625,0.3896484375t-0.1904296875,0.3193359375t-0.3017578125,0.1318359375q-0.08203125-0.01171875-0.1494140625-0.029296875t-0.1259765625-0.076171875q0.09375-0.205078125,0.1669921875-0.427734375t0.0732421875-0.509765625q0-0.10546875-0.017578125-0.26953125t-0.0673828125-0.3251953125t-0.1318359375-0.28125t-0.228515625-0.1201171875q-0.369140625,0-0.62109375,0.4130859375t-0.421875,1.0546875t-0.251953125,1.41796875t-0.1259765625,1.5t-0.0498046875,1.306640625t-0.005859375,0.8232421875q0,0.28125-0.005859375,0.62109375l0,0.076171875q0.005859375,0.298828125,0.041015625,0.568359375q0.046875,0.3046875,0.181640625,0.52734375t0.421875,0.2578125q0.087890625,0.01171875,0.169921875,0.01171875q0.33984375,0,0.615234375-0.193359375q0.33984375-0.240234375,0.603515625-0.6240234375t0.46875-0.84375t0.3779296875-0.8701171875t0.3369140625-0.6796875t0.33984375-0.26953125q0.05859375,0,0.17578125,0.0234375t0.1171875,0.111328125q0,0.0234375-0.01171875,0.064453125t-0.029296875,0.064453125q-0.158203125,0.62109375-0.4013671875,1.2890625t-0.62109375,1.2158203125t-0.92578125,0.8935546875t-1.3154296875,0.345703125q-0.55078125,0-0.8935546875-0.2080078125t-0.52734375-0.556640625t-0.251953125-0.7880859375t-0.0673828125-0.890625z M108.60158203125,20.673828125q0-0.240234375,0.0849609375-0.404296875t0.3603515625-0.1640625q0.10546875,0,0.263671875,0.0322265625t0.181640625,0.1611328125q0.05859375,0.345703125,0.064453125,0.75t0.041015625,0.76171875q0.134765625-0.263671875,0.345703125-0.568359375t0.48046875-0.5625t0.5859375-0.427734375t0.64453125-0.169921875q0.0234375,0,0.087890625,0.017578125t0.1201171875,0.0498046875t0.0673828125,0.0732421875t-0.064453125,0.076171875q-0.0234375,0.0703125-0.099609375,0.0849609375t-0.134765625,0.0146484375q-0.03515625,0-0.111328125-0.029296875q-0.43359375,0.228515625-0.73828125,0.62109375t-0.498046875,0.8701171875t-0.28125,1.0078125t-0.087890625,1.0341796875q0,0.251953125-0.1142578125,0.3046875t-0.3662109375,0.052734375q-0.134765625,0-0.2841796875-0.029296875t-0.2080078125-0.1875q-0.10546875-0.333984375-0.1728515625-0.767578125t-0.1025390625-0.8935546875t-0.0498046875-0.9052734375t-0.0146484375-0.802734375z M112.7656640625,21.0078125q0-0.169921875,0.0966796875-0.22265625t0.2431640625-0.052734375q0.240234375,0,0.3662109375,0.0908203125t0.1259765625,0.3193359375q0,0.275390625,0.041015625,0.6884765625t0.1201171875,0.802734375t0.1875,0.6708984375t0.2255859375,0.28125q0.216796875,0,0.3837890625-0.333984375t0.29296875-0.8203125t0.216796875-1.0458984375t0.1259765625-0.9990234375q0.0234375-0.240234375,0.1142578125-0.3486328125t0.3310546875-0.1083984375q0.275390625,0,0.4013671875,0.228515625t0.1611328125,0.5625q0.029296875,0.287109375,0.029296875,0.59765625l0,0.099609375l0,0.234375q0,0.22265625,0.005859375,0.3984375l0.169921875,3.591796875l0.0234375,0.59765625q0.01171875,0.08203125,0.017578125,0.1552734375t0.005859375,0.1552734375q0,0.333984375-0.1435546875,0.4306640625t-0.4658203125,0.0966796875q-0.0703125,0-0.1787109375-0.01171875t-0.2109375-0.046875t-0.17578125-0.0966796875t-0.0732421875-0.1552734375l0.0234375-0.05859375q0.029296875-0.3515625,0.029296875-0.73828125l0-0.123046875q-0.005859375-0.45703125-0.029296875-0.92578125t-0.052734375-0.9375t-0.029296875-0.90234375q-0.08203125,0.181640625-0.1904296875,0.375t-0.251953125,0.3486328125t-0.3251953125,0.2578125t-0.41015625,0.1025390625q-0.333984375,0-0.55078125-0.17578125t-0.3369140625-0.45703125t-0.1728515625-0.6298828125t-0.0703125-0.697265625t-0.0234375-0.6650390625t-0.046875-0.533203125z M117.65044921875,20.193359375q0-0.275390625,0.1083984375-0.4072265625t0.3955078125-0.1318359375q0.169921875,0,0.3193359375,0.0703125t0.1494140625,0.298828125q0.0234375,0.333984375,0.0234375,0.7001953125t0.064453125,0.6943359375q0.146484375-0.240234375,0.3310546875-0.48046875t0.4072265625-0.427734375t0.486328125-0.3017578125t0.57421875-0.1142578125q0.421875,0,0.71484375,0.17578125t0.4833984375,0.45703125t0.275390625,0.6357421875t0.0849609375,0.7119140625q0,0.55078125-0.1669921875,0.8994140625t-0.4423828125,0.5478515625t-0.6240234375,0.26953125t-0.7001953125,0.0703125q-0.310546875,0-0.580078125-0.1201171875t-0.375-0.4541015625q0-0.09375,0.1376953125-0.1171875t0.1962890625-0.0234375q0.193359375,0,0.287109375,0.10546875q0.0703125,0.08203125,0.1552734375,0.1669921875t0.1787109375,0.0849609375q0.181640625,0,0.380859375-0.1025390625t0.3662109375-0.26953125t0.28125-0.3955078125t0.1142578125-0.46875q0-0.205078125-0.03515625-0.509765625t-0.1201171875-0.5859375t-0.234375-0.486328125t-0.3779296875-0.205078125q-0.345703125,0-0.6240234375,0.31640625t-0.462890625,0.76171875t-0.287109375,0.92578125t-0.1025390625,0.802734375t0.041015625,0.814453125t0.0849609375,1.0224609375t0.0849609375,1.0224609375t0.041015625,0.814453125q0,0.08203125-0.0673828125,0.1318359375t-0.1611328125,0.0791015625t-0.1904296875,0.03515625t-0.1435546875,0.005859375q-0.158203125,0-0.3310546875-0.03515625t-0.2373046875-0.216796875q-0.08203125-0.287109375-0.15234375-0.8173828125t-0.1259765625-1.171875t-0.0966796875-1.34765625t-0.0703125-1.3623046875t-0.0439453125-1.201171875t-0.0146484375-0.8671875z M123.027421875,18.59375q0-0.08203125,0.17578125-0.140625t0.3984375-0.0966796875t0.4306640625-0.0556640625t0.2841796875-0.029296875q0-0.158203125,0.01171875-0.3193359375t0.064453125-0.287109375t0.1669921875-0.2021484375t0.3193359375-0.076171875q0.169921875,0,0.2578125,0.041015625t0.1875,0.169921875q0.0234375,0.0703125,0.0234375,0.134765625l0,0.1962890625t-0.01171875,0.2021484375q0.216796875-0.0234375,0.4306640625-0.0556640625t0.4306640625-0.0322265625q0.158203125,0,0.216796875,0.005859375t0.1171875,0.140625q0.046875,0.134765625-0.1142578125,0.205078125t-0.38671875,0.10546875t-0.4482421875,0.052734375t-0.26953125,0.017578125q-0.0703125,1.0078125-0.1435546875,1.998046875t-0.0732421875,2.009765625q0,0.45703125,0.029296875,0.943359375t0.1640625,0.919921875q0.03515625,0.134765625,0.1171875,0.251953125t0.08203125,0.251953125q0,0.08203125-0.064453125,0.12890625t-0.1552734375,0.0791015625t-0.181640625,0.0380859375t-0.1494140625,0.005859375q-0.369140625,0-0.5625-0.275390625t-0.2783203125-0.6591796875t-0.0908203125-0.7880859375t-0.005859375-0.65625q0-0.515625,0.0205078125-1.0546875t0.0498046875-1.06640625t0.08203125-1.03125t0.123046875-0.9375q-0.205078125,0.0234375-0.4013671875,0.052734375t-0.4013671875,0.029296875q-0.046875,0-0.1259765625-0.005859375t-0.1494140625-0.029296875t-0.1201171875-0.064453125t-0.0498046875-0.1171875z M127.39072265625,22.42578125q0-0.333984375,0.0849609375-0.6884765625t0.26953125-0.638671875t0.4658203125-0.462890625t0.6796875-0.1787109375q0.298828125,0,0.6298828125,0.1025390625t0.6064453125,0.29296875t0.4482421875,0.4658203125t0.1728515625,0.615234375q0,0.41015625-0.1494140625,0.779296875t-0.4189453125,0.6591796875t-0.6298828125,0.45703125t-0.7822265625,0.1669921875q-0.345703125,0-0.603515625-0.1259765625t-0.4306640625-0.3369140625t-0.2578125-0.498046875t-0.0849609375-0.609375z M128.25205078125,22.4140625q0,0.10546875,0.0322265625,0.310546875t0.0966796875,0.4013671875t0.1669921875,0.33984375t0.2490234375,0.1318359375q0.310546875-0.03515625,0.5126953125-0.2021484375t0.328125-0.4072265625t0.17578125-0.521484375t0.0498046875-0.533203125q0-0.322265625-0.1259765625-0.5390625t-0.4130859375-0.3515625q0,0.01171875,0.01171875,0.01171875t0.01171875-0.01171875l-0.146484375-0.03515625q-0.05859375-0.0234375-0.1435546875-0.052734375t-0.1669921875-0.12890625q-0.228515625,0.08203125-0.3544921875,0.2109375t-0.1904296875,0.3134765625t-0.0791015625,0.4423828125t-0.0146484375,0.62109375z"/></svg>
