<?xml version="1.0"?>
<svg version="1.1" xmlns="http://www.w3.org/2000/svg" width="200px" height="80px" style=""><path fill="#1d3d5e" d="M22.72265625,40.05859375q-3.41796875,0-5.29296875,2.568359375t-1.875,7.158203125q0,9.55078125,7.16796875,9.55078125q3.0078125,0,7.28515625-1.50390625l0,5.078125q-3.515625,1.46484375-7.8515625,1.46484375q-6.23046875,0-9.53125-3.779296875t-3.30078125-10.849609375q0-4.453125,1.62109375-7.802734375t4.658203125-5.13671875t7.119140625-1.787109375q4.16015625,0,8.359375,2.01171875l-1.953125,4.921875q-1.6015625-0.76171875-3.22265625-1.328125t-3.18359375-0.56640625z M55.2767578125,63.984375l-16.4453125,0l0-28.5546875l16.4453125,0l0,4.9609375l-10.390625,0l0,6.26953125l9.66796875,0l0,4.9609375l-9.66796875,0l0,7.36328125l10.390625,0l0,5z M87.069140625,63.984375l-6.9140625,0l-6.640625-10.80078125l-6.640625,10.80078125l-6.484375,0l9.47265625-14.7265625l-8.8671875-13.828125l6.6796875,0l6.15234375,10.2734375l6.03515625-10.2734375l6.5234375,0l-8.96484375,14.16015625z M92.1037109375,61.19140625q0-1.640625,0.87890625-2.48046875t2.55859375-0.83984375q1.62109375,0,2.509765625,0.859375t0.888671875,2.4609375q0,1.54296875-0.8984375,2.431640625t-2.5,0.888671875q-1.640625,0-2.5390625-0.869140625t-0.8984375-2.451171875z M119.24765625,41.73828125q3.8671875,0,6.0546875,3.017578125t2.1875,8.271484375q0,5.41015625-2.255859375,8.37890625t-6.142578125,2.96875q-3.84765625,0-6.03515625-2.79296875l-0.41015625,0l-0.99609375,2.40234375l-4.55078125,0l0-30.390625l5.95703125,0l0,7.0703125q0,1.34765625-0.234375,4.31640625l0.234375,0q2.08984375-3.2421875,6.19140625-3.2421875z M117.33359375,46.50390625q-2.20703125,0-3.22265625,1.357421875t-1.0546875,4.482421875l0,0.64453125q0,3.515625,1.044921875,5.0390625t3.310546875,1.5234375q1.8359375,0,2.919921875-1.689453125t1.083984375-4.912109375t-1.09375-4.833984375t-2.98828125-1.611328125z M149.0283203125,63.984375l-1.15234375-2.96875l-0.15625,0q-1.50390625,1.89453125-3.095703125,2.626953125t-4.150390625,0.732421875q-3.14453125,0-4.951171875-1.796875t-1.806640625-5.1171875q0-3.4765625,2.431640625-5.126953125t7.333984375-1.826171875l3.7890625-0.1171875l0-0.95703125q0-3.3203125-3.3984375-3.3203125q-2.6171875,0-6.15234375,1.58203125l-1.97265625-4.0234375q3.76953125-1.97265625,8.359375-1.97265625q4.39453125,0,6.73828125,1.9140625t2.34375,5.8203125l0,14.55078125l-4.16015625,0z M147.2705078125,53.8671875l-2.3046875,0.078125q-2.59765625,0.078125-3.8671875,0.9375t-1.26953125,2.6171875q0,2.51953125,2.890625,2.51953125q2.0703125,0,3.310546875-1.19140625t1.240234375-3.1640625l0-1.796875z"/><path fill="#" d=""/></svg>
