<?xml version="1.0" standalone="no"?>
<!DOCTYPE svg PUBLIC "-//W3C//DTD SVG 20010904//EN"
 "http://www.w3.org/TR/2001/REC-SVG-20010904/DTD/svg10.dtd">
<svg version="1.0" xmlns="http://www.w3.org/2000/svg"
 width="1024.000000pt" height="745.000000pt" viewBox="0 0 1024.000000 745.000000"
 preserveAspectRatio="xMidYMid meet">

<g transform="translate(0.000000,745.000000) scale(0.100000,-0.100000)"
fill="#000000" stroke="none">
<path d="M0 3725 l0 -3725 5120 0 5120 0 0 3725 0 3725 -5120 0 -5120 0 0
-3725z m6710 3238 c118 -152 275 -353 349 -447 74 -94 200 -256 280 -360 80
-104 181 -234 225 -290 43 -56 87 -113 97 -128 l19 -27 -96 -71 c-52 -39 -99
-70 -104 -68 -8 3 -36 38 -230 288 -52 67 -133 170 -179 229 -46 58 -109 140
-139 181 -31 41 -106 138 -167 215 -61 77 -161 205 -222 285 -62 80 -144 186
-182 235 -39 50 -70 93 -68 97 2 8 188 137 197 137 3 0 102 -124 220 -276z
m-449 -102 c21 -28 202 -259 374 -476 84 -104 191 -243 239 -307 l88 -118 -28
-47 c-51 -88 -169 -189 -278 -239 -130 -59 -368 -85 -606 -65 -123 10 -295 32
-361 46 -22 5 -38 -5 -96 -57 -38 -35 -165 -148 -283 -253 -117 -104 -238
-213 -269 -241 -31 -28 -73 -66 -95 -85 l-38 -35 115 -219 116 -218 64 2 c115
4 249 -40 340 -112 35 -27 123 -135 115 -141 -1 -1 -75 -10 -163 -19 -88 -10
-234 -28 -325 -42 -91 -13 -183 -25 -204 -27 l-40 -3 -73 115 c-81 126 -192
302 -360 570 l-110 175 116 125 c184 197 643 702 840 924 l26 29 -71 -37
c-115 -59 -256 -181 -599 -515 -506 -492 -459 -442 -482 -512 -12 -35 -76
-230 -143 -433 -138 -422 -174 -514 -236 -607 -75 -113 -194 -203 -317 -240
-38 -11 -70 -19 -72 -17 -5 7 48 270 86 428 57 231 173 631 267 918 l80 244
71 54 c39 29 124 97 189 151 64 54 151 125 192 157 203 161 623 516 617 522
-6 6 -207 -106 -269 -150 -31 -23 -100 -68 -153 -101 -53 -33 -244 -158 -424
-277 l-328 -217 -76 -213 c-42 -117 -81 -232 -88 -255 -10 -35 -50 -80 -258
-286 -264 -262 -329 -313 -446 -350 -95 -30 -226 -29 -305 2 -97 37 -103 22
91 218 96 98 211 219 255 268 76 86 337 410 440 545 167 220 201 257 266 288
74 36 335 184 528 298 74 44 197 116 272 159 76 43 137 80 135 81 -3 4 -482
-160 -582 -199 -49 -19 -142 -59 -205 -89 -63 -30 -164 -76 -223 -103 l-108
-50 -40 -71 c-21 -39 -45 -76 -52 -82 -19 -16 -543 -189 -622 -206 -176 -36
-299 -27 -408 31 -48 26 -137 105 -137 122 0 8 6 11 370 150 129 49 307 117
395 151 274 106 373 139 595 199 286 78 1233 349 1810 518 256 75 546 160 645
189 99 29 190 53 201 53 12 1 28 -8 35 -18z m387 -1406 c81 -19 141 -54 193
-113 101 -113 123 -280 56 -425 -30 -66 -107 -146 -172 -177 -44 -21 -64 -24
-165 -25 -98 0 -122 3 -162 22 -68 31 -122 78 -165 142 -21 31 -40 59 -43 63
-6 7 -158 -52 -545 -212 l-150 -62 -55 17 c-30 9 -88 22 -129 29 l-73 12 -59
93 c-33 52 -59 97 -59 101 0 7 124 57 775 312 226 88 436 173 468 189 99 50
176 60 285 34z m-3758 -263 l0 -138 -55 -54 -55 -54 0 176 0 176 43 15 c71 24
67 31 67 -121z m3301 -537 c5 -4 9 -362 9 -896 l0 -889 79 0 c63 0 80 -3 85
-16 3 -9 6 -72 6 -141 0 -124 0 -125 -29 -154 -39 -39 -65 -118 -59 -180 10
-101 100 -195 211 -220 75 -16 156 7 210 62 45 45 35 50 109 -59 39 -58 44
-61 56 -45 8 10 103 149 212 308 109 160 223 325 252 367 l53 78 348 0 c276 0
347 -3 341 -12 -11 -19 -179 -268 -371 -550 -92 -136 -208 -307 -258 -380 -49
-73 -125 -184 -168 -245 -49 -71 -75 -117 -71 -125 5 -7 42 -61 84 -119 79
-112 254 -362 595 -849 l206 -295 -338 -5 c-186 -3 -346 -3 -356 -1 -10 2 -41
38 -69 80 -28 42 -77 112 -108 156 -31 44 -128 184 -215 312 l-158 232 -40
-57 c-136 -193 -252 -359 -307 -442 -34 -52 -92 -137 -128 -187 l-65 -93 -359
0 c-197 0 -358 3 -358 6 0 3 24 38 53 77 56 76 701 982 800 1125 l58 83 -99
142 c-54 78 -155 223 -224 322 -68 99 -183 263 -254 365 -211 300 -304 437
-304 449 0 8 71 11 235 11 l235 0 0 956 0 956 46 -61 c25 -33 50 -63 55 -66z
m-1681 -73 c20 -24 20 -43 20 -1038 0 -1001 0 -1014 -20 -1034 -23 -23 -49
-25 -75 -6 -14 10 -19 26 -19 62 0 27 0 521 2 1099 l2 1050 35 -54 c20 -29 44
-65 55 -79z m2090 -1126 c0 -1054 -1 -1083 -19 -1100 -26 -24 -72 -17 -87 12
-9 19 -13 1288 -6 2027 l2 150 55 -3 55 -4 0 -1082z m-3480 141 l0 -724 130 5
c188 7 338 -21 523 -96 l87 -35 0 -181 0 -181 -91 -92 -91 -92 -70 35 c-154
77 -356 99 -521 55 -255 -67 -452 -268 -517 -525 -25 -100 -27 -262 -4 -355
56 -227 222 -425 423 -507 131 -53 263 -65 415 -39 161 28 265 80 386 194 35
34 66 61 67 61 2 0 3 -159 3 -354 l0 -353 -96 -37 c-294 -112 -608 -123 -899
-29 -260 83 -509 271 -662 501 -154 231 -225 464 -225 747 0 304 91 559 291
807 165 205 377 347 639 428 l102 32 0 694 0 694 48 35 c26 19 50 35 55 35 4
0 7 -326 7 -723z m2330 -108 l0 -621 -42 3 c-24 1 -49 5 -55 7 -10 3 -13 134
-13 608 l0 604 28 6 c15 3 32 7 37 9 6 2 18 4 28 4 16 1 17 -35 17 -620z
m-1626 -628 c-2 -2 -27 5 -56 15 l-53 19 -3 396 -2 396 52 37 53 37 6 -448 c3
-246 4 -450 3 -452z m457 -28 c0 -21 2 -48 3 -60 2 -13 -6 -31 -17 -40 -59
-53 -77 -190 -37 -277 45 -95 163 -164 260 -153 137 16 245 132 244 262 -1 60
-23 119 -64 173 -10 12 -17 30 -15 40 2 9 4 34 4 55 l1 37 339 0 339 0 174
-252 c180 -262 208 -304 208 -313 0 -3 -236 -5 -525 -5 l-525 0 2 -230 3 -231
538 1 537 0 -2 -272 c-3 -265 -4 -273 -23 -274 -11 -1 -253 -2 -537 -3 l-518
-1 0 -225 0 -225 510 0 c302 0 510 -4 510 -9 0 -5 -53 -81 -117 -168 -65 -88
-152 -207 -193 -266 l-75 -106 -612 -1 -613 0 0 1290 0 1290 100 0 100 0 1
-37z"/>
<path d="M6510 5281 c-139 -43 -193 -165 -129 -293 55 -108 205 -137 303 -56
128 105 82 306 -80 347 -48 12 -58 13 -94 2z"/>
</g>
</svg>
